<svg aria-hidden="true" style="position: absolute; width: 0; height: 0; overflow: hidden;" version="1.1" xmlns="http://www.w3.org/2000/svg" xmlns:xlink="http://www.w3.org/1999/xlink">
<defs>
<symbol id="arrow-right" viewBox="0 0 11 32">
<path fill="#fff" style="fill: var(--color1, #fff)" d="M0.28 29.519l8.197-12.493c0.18-0.273 0.281-0.641 0.281-1.024s-0.101-0.751-0.281-1.024l-8.195-12.495c-0.18-0.274-0.28-0.643-0.28-1.028s0.101-0.754 0.28-1.028c0.088-0.135 0.193-0.242 0.309-0.316s0.24-0.111 0.366-0.111c0.126 0 0.25 0.038 0.366 0.111s0.221 0.181 0.309 0.316l8.195 12.49c0.539 0.823 0.84 1.93 0.84 3.083s-0.302 2.26-0.84 3.083l-8.195 12.49c-0.088 0.135-0.193 0.243-0.309 0.317s-0.241 0.111-0.367 0.111-0.251-0.038-0.367-0.111c-0.116-0.074-0.221-0.181-0.309-0.317-0.18-0.274-0.28-0.643-0.28-1.028s0.101-0.754 0.28-1.028z"></path>
</symbol>
<symbol id="arrow-left" viewBox="0 0 11 32">
<path fill="#fff" style="fill: var(--color1, #fff)" d="M10.386 29.519l-8.197-12.493c-0.18-0.273-0.281-0.641-0.281-1.024s0.101-0.751 0.281-1.024l8.195-12.495c0.18-0.274 0.28-0.643 0.28-1.028s-0.101-0.754-0.28-1.028c-0.088-0.135-0.193-0.242-0.309-0.316s-0.24-0.111-0.366-0.111c-0.126 0-0.25 0.038-0.366 0.111s-0.221 0.181-0.309 0.316l-8.195 12.49c-0.538 0.823-0.84 1.93-0.84 3.083s0.302 2.26 0.84 3.083l8.195 12.49c0.088 0.135 0.193 0.243 0.309 0.317s0.241 0.111 0.367 0.111 0.251-0.038 0.367-0.111c0.116-0.074 0.221-0.181 0.309-0.317 0.18-0.274 0.28-0.643 0.28-1.028s-0.101-0.754-0.28-1.028z"></path>
</symbol>
<symbol id="arrow" viewBox="0 0 32 32">
<path fill="none" stroke="#495057" style="stroke: var(--color2, #495057)" stroke-linejoin="miter" stroke-linecap="square" stroke-miterlimit="4" stroke-width="2.6667" d="M17.212 9.333l6.788 6.667M24 16l-6.788 6.667M24 16h-16"></path>
</symbol>
</defs>
</svg>
