<svg  viewBox="0 0 119 36" fill="none" xmlns="http://www.w3.org/2000/svg">
<path d="M25.9165 34.226C23.1646 35.5475 20.1218 36.1474 17.0743 35.9693C14.0267 35.7913 11.0746 34.841 8.49533 33.208C5.9161 31.575 3.79458 29.3128 2.33025 26.6342C0.86592 23.9556 0.106903 20.9485 0.124569 17.8958C0.142235 14.8431 0.936005 11.8451 2.43124 9.18361C3.92647 6.52212 6.07403 4.28464 8.67199 2.68156C11.2699 1.07849 14.2329 0.162489 17.2823 0.0197009C20.3317 -0.123087 23.3674 0.512026 26.1038 1.86532L22.2102 9.73826C20.809 9.04531 19.2546 8.7201 17.6932 8.79321C16.1317 8.86633 14.6145 9.33536 13.2842 10.1562C11.954 10.9771 10.8543 12.1228 10.0887 13.4856C9.32304 14.8484 8.91659 16.3835 8.90755 17.9467C8.8985 19.5098 9.28715 21.0495 10.037 22.4211C10.7868 23.7927 11.8731 24.951 13.1938 25.7872C14.5145 26.6234 16.0261 27.11 17.5866 27.2012C19.1471 27.2924 20.7052 26.9852 22.1143 26.3085L25.9165 34.226Z" fill="url(#paint0_linear_14087_3183)"/>
<ellipse cx="17.9101" cy="17.7866" rx="6.21429" ry="6.21429" fill="#B982FF"/>
<path d="M117.186 22.7177C116.72 22.7177 116.32 22.5548 115.986 22.229C115.656 21.8992 115.493 21.499 115.497 21.0284C115.493 20.5699 115.656 20.1778 115.986 19.852C116.32 19.5262 116.72 19.3633 117.186 19.3633C117.629 19.3633 118.019 19.5262 118.357 19.852C118.699 20.1778 118.872 20.5699 118.876 21.0284C118.872 21.3421 118.789 21.6277 118.628 21.8851C118.471 22.1385 118.266 22.3416 118.013 22.4945C117.76 22.6433 117.484 22.7177 117.186 22.7177Z" fill="#B982FF"/>
<path d="M107.698 25.9998C107.316 25.9998 106.952 25.9696 106.606 25.9093C106.26 25.8529 105.956 25.7745 105.695 25.674L106.419 23.309C106.692 23.4055 106.942 23.4679 107.167 23.496C107.396 23.5242 107.591 23.5081 107.752 23.4477C107.917 23.3874 108.036 23.2728 108.108 23.1039L108.18 22.9349L104.923 13.2578H108.398L109.894 19.677H109.99L111.511 13.2578H115.01L111.631 23.2969C111.463 23.8077 111.217 24.2662 110.895 24.6725C110.578 25.0827 110.159 25.4065 109.641 25.6438C109.122 25.8811 108.474 25.9998 107.698 25.9998Z" fill="white"/>
<path d="M103.974 10.168V22.5238H100.644V10.168H103.974Z" fill="white"/>
<path d="M98.9472 10.168V22.5238H95.6169V10.168H98.9472Z" fill="white"/>
<path d="M89.4632 22.6932C88.4577 22.6932 87.597 22.4941 86.8811 22.0959C86.1651 21.6937 85.6161 21.1346 85.234 20.4187C84.8519 19.6987 84.6609 18.8642 84.6609 17.9149C84.6609 16.9657 84.8519 16.1332 85.234 15.4172C85.6161 14.6973 86.1651 14.1382 86.8811 13.74C87.597 13.3378 88.4577 13.1367 89.4632 13.1367C90.4688 13.1367 91.3295 13.3378 92.0454 13.74C92.7614 14.1382 93.3104 14.6973 93.6925 15.4172C94.0746 16.1332 94.2656 16.9657 94.2656 17.9149C94.2656 18.8642 94.0746 19.6987 93.6925 20.4187C93.3104 21.1346 92.7614 21.6937 92.0454 22.0959C91.3295 22.4941 90.4688 22.6932 89.4632 22.6932ZM89.4874 20.2317C89.7689 20.2317 90.0123 20.1371 90.2174 19.9481C90.4225 19.7591 90.5814 19.4896 90.694 19.1397C90.8066 18.7897 90.8629 18.3735 90.8629 17.8908C90.8629 17.4041 90.8066 16.9879 90.694 16.642C90.5814 16.292 90.4225 16.0226 90.2174 15.8335C90.0123 15.6445 89.7689 15.55 89.4874 15.55C89.1897 15.55 88.9343 15.6445 88.7212 15.8335C88.508 16.0226 88.3451 16.292 88.2325 16.642C88.1199 16.9879 88.0636 17.4041 88.0636 17.8908C88.0636 18.3735 88.1199 18.7897 88.2325 19.1397C88.3451 19.4896 88.508 19.7591 88.7212 19.9481C88.9343 20.1371 89.1897 20.2317 89.4874 20.2317Z" fill="white"/>
<path d="M83.7388 13.2573V15.6705H77.6333V13.2573H83.7388ZM78.8158 11.0371H82.1461V19.5438C82.1461 19.6725 82.1682 19.7811 82.2124 19.8696C82.2567 19.9541 82.3251 20.0184 82.4176 20.0627C82.5101 20.1029 82.6287 20.123 82.7735 20.123C82.8741 20.123 82.9907 20.1109 83.1234 20.0868C83.2602 20.0626 83.3607 20.0425 83.4251 20.0265L83.9077 22.3673C83.7589 22.4115 83.5458 22.4658 83.2682 22.5302C82.9947 22.5945 82.6689 22.6368 82.2909 22.6569C81.5267 22.6971 80.8852 22.6187 80.3663 22.4216C79.8475 22.2205 79.4573 21.9048 79.1959 21.4744C78.9344 21.044 78.8077 20.5051 78.8158 19.8575V11.0371Z" fill="white"/>
<path d="M67.2129 25.9993V13.2574H70.519V14.8743H70.5914C70.7121 14.5605 70.8891 14.273 71.1224 14.0115C71.3556 13.7461 71.6452 13.5349 71.9911 13.378C72.337 13.2172 72.7392 13.1367 73.1977 13.1367C73.8091 13.1367 74.3903 13.2996 74.9413 13.6254C75.4964 13.9512 75.9468 14.464 76.2927 15.1638C76.6427 15.8637 76.8176 16.7727 76.8176 17.8908C76.8176 18.9607 76.6507 19.8476 76.3169 20.5514C75.9871 21.2553 75.5446 21.7802 74.9896 22.1261C74.4386 22.472 73.8332 22.6449 73.1736 22.6449C72.7392 22.6449 72.3511 22.5745 72.0092 22.4338C71.6714 22.289 71.3818 22.0939 71.1405 21.8485C70.9031 21.5992 70.7201 21.3176 70.5914 21.0039H70.5432V25.9993H67.2129ZM70.4708 17.8908C70.4708 18.3413 70.5291 18.7314 70.6457 19.0612C70.7664 19.387 70.9353 19.6404 71.1525 19.8214C71.3737 19.9984 71.6372 20.0869 71.9429 20.0869C72.2485 20.0869 72.508 20.0004 72.7211 19.8274C72.9383 19.6505 73.1032 19.3991 73.2158 19.0733C73.3325 18.7435 73.3908 18.3493 73.3908 17.8908C73.3908 17.4323 73.3325 17.0401 73.2158 16.7144C73.1032 16.3845 72.9383 16.1332 72.7211 15.9602C72.508 15.7832 72.2485 15.6948 71.9429 15.6948C71.6372 15.6948 71.3737 15.7832 71.1525 15.9602C70.9353 16.1332 70.7664 16.3845 70.6457 16.7144C70.5291 17.0401 70.4708 17.4323 70.4708 17.8908Z" fill="white"/>
<path d="M58.9535 25.9998C58.5714 25.9998 58.2074 25.9696 57.8615 25.9093C57.5156 25.8529 57.2119 25.7745 56.9505 25.674L57.6744 23.309C57.9479 23.4055 58.1973 23.4679 58.4225 23.496C58.6518 23.5242 58.8469 23.5081 59.0078 23.4477C59.1727 23.3874 59.2913 23.2728 59.3637 23.1039L59.4361 22.9349L56.1782 13.2578H59.6533L61.1495 19.677H61.246L62.7664 13.2578H66.2656L62.887 23.2969C62.7181 23.8077 62.4728 24.2662 62.151 24.6725C61.8333 25.0827 61.415 25.4065 60.8961 25.6438C60.3773 25.8811 59.7297 25.9998 58.9535 25.9998Z" fill="white"/>
<path d="M49.2781 22.5242V13.2574H52.5118V15.0191H52.6084C52.7773 14.3675 53.0448 13.8909 53.4108 13.5892C53.7808 13.2875 54.2132 13.1367 54.7079 13.1367C54.8527 13.1367 54.9955 13.1488 55.1362 13.1729C55.281 13.193 55.4198 13.2232 55.5525 13.2634V16.105C55.3876 16.0487 55.1845 16.0065 54.9432 15.9783C54.7018 15.9502 54.4947 15.9361 54.3218 15.9361C53.996 15.9361 53.7024 16.0105 53.4409 16.1593C53.1835 16.3041 52.9804 16.5092 52.8316 16.7747C52.6828 17.0361 52.6084 17.3438 52.6084 17.6978V22.5242H49.2781Z" fill="white"/>
<path d="M47.7079 14.8024H44.3052C44.281 14.5208 44.2167 14.2654 44.1121 14.0362C44.0116 13.8069 43.8708 13.6098 43.6898 13.4449C43.5128 13.276 43.2976 13.1473 43.0443 13.0588C42.7909 12.9663 42.5033 12.92 42.1815 12.92C41.6184 12.92 41.1418 13.0568 40.7517 13.3303C40.3655 13.6038 40.0719 13.9959 39.8708 14.5067C39.6738 15.0175 39.5752 15.6309 39.5752 16.3468C39.5752 17.103 39.6758 17.7365 39.8769 18.2473C40.082 18.7541 40.3776 19.1361 40.7637 19.3936C41.1499 19.647 41.6144 19.7736 42.1574 19.7736C42.4671 19.7736 42.7446 19.7354 42.99 19.659C43.2353 19.5786 43.4485 19.4639 43.6295 19.3151C43.8105 19.1663 43.9573 18.9873 44.0699 18.7782C44.1865 18.565 44.265 18.3257 44.3052 18.0602L47.7079 18.0844C47.6676 18.6072 47.5208 19.1402 47.2674 19.6832C47.014 20.2221 46.6541 20.7208 46.1875 21.1794C45.725 21.6339 45.1518 21.9999 44.4681 22.2774C43.7843 22.5549 42.99 22.6937 42.085 22.6937C40.9508 22.6937 39.9332 22.4503 39.0322 21.9637C38.1353 21.477 37.4254 20.7611 36.9025 19.8159C36.3837 18.8707 36.1243 17.7143 36.1243 16.3468C36.1243 14.9713 36.3897 13.8129 36.9206 12.8718C37.4516 11.9266 38.1675 11.2127 39.0684 10.73C39.9694 10.2433 40.9749 10 42.085 10C42.8653 10 43.5832 10.1066 44.2388 10.3198C44.8944 10.5329 45.4696 10.8446 45.9643 11.2549C46.459 11.6611 46.8572 12.1619 47.1588 12.7571C47.4605 13.3524 47.6435 14.0341 47.7079 14.8024Z" fill="white"/>
<defs>
<linearGradient id="paint0_linear_14087_3183" x1="29.2419" y1="3.83823" x2="3.6978" y2="29.3824" gradientUnits="userSpaceOnUse">
<stop stop-color="#18C8FF"/>
<stop offset="1" stop-color="#933FFE"/>
</linearGradient>
</defs>
</svg>
